<?xml version="1.0" encoding="UTF-8" standalone="no"?>
<svg
   version="1.1"
   width="320.20001"
   height="112.06"
   style="clip-rule:evenodd;fill-rule:evenodd;image-rendering:optimizeQuality;shape-rendering:geometricPrecision;text-rendering:geometricPrecision"
   id="svg1111"
   sodipodi:docname="logo3.svg"
   inkscape:version="1.2.2 (b0a8486, 2022-12-01)"
   xmlns:inkscape="http://www.inkscape.org/namespaces/inkscape"
   xmlns:sodipodi="http://sodipodi.sourceforge.net/DTD/sodipodi-0.dtd"
   xmlns="http://www.w3.org/2000/svg"
   xmlns:svg="http://www.w3.org/2000/svg">
  <defs
     id="defs1115" />
  <sodipodi:namedview
     id="namedview1113"
     pagecolor="#ffffff"
     bordercolor="#000000"
     borderopacity="0.25"
     inkscape:showpageshadow="2"
     inkscape:pageopacity="0.0"
     inkscape:pagecheckerboard="0"
     inkscape:deskcolor="#d1d1d1"
     showgrid="false"
     inkscape:zoom="2.3944707"
     inkscape:cx="91.669529"
     inkscape:cy="66.402984"
     inkscape:window-width="1773"
     inkscape:window-height="724"
     inkscape:window-x="77"
     inkscape:window-y="30"
     inkscape:window-maximized="0"
     inkscape:current-layer="svg1111" />
  <g
     id="g1017"
     transform="matrix(0.19691943,0,0,0.19691943,0.09845971,0.09845971)" />
  <g
     id="g1021"
     transform="matrix(0.39634571,0,0,0.39634571,-2.7932215,-1.8958027)">
    <path
       style="opacity:1"
       fill="#0a5f7e"
       d="m 20.5,106.5 c 4.8148,-8.905 8.9814,-18.2383 12.5,-28 4.4668,0.489 8.9668,0.489 13.5,0 2.6411,0.7631 5.3078,0.9298 8,0.5 2.5454,-3.5899 5.212,-7.0899 8,-10.5 C 59.6286,61.9248 56.6286,55.4248 53.5,49 63.0896,41.9549 72.5896,34.7882 82,27.5 c 5.6776,4.3475 11.3442,8.6808 17,13 3.833,-1.5 7.667,-3 11.5,-4.5 1.857,-7.0073 3.023,-14.174 3.5,-21.5 11.724,-2.3387 23.557,-3.8387 35.5,-4.5 2.691,6.4048 5.191,12.9048 7.5,19.5 3.931,0.8096 7.931,1.4763 12,2 5.301,-4.722 9.801,-10.222 13.5,-16.5 1.333,-0.6667 2.667,-0.6667 4,0 9.85,4.1709 19.684,8.3376 29.5,12.5 -0.603,6.3002 -1.437,12.6336 -2.5,19 0.333,1.3333 0.667,2.6667 1,4 2.85,1.9271 5.517,4.0938 8,6.5 7.377,-2.0203 14.543,-4.8536 21.5,-8.5 7.358,9.1908 14.525,18.5242 21.5,28 -4.285,6.2861 -8.951,12.2861 -14,18 1.598,3.6264 3.098,7.293 4.5,11 7.617,1.595 15.284,2.929 23,4 1.599,10.821 3.099,21.655 4.5,32.5 -0.085,1.107 -0.419,2.107 -1,3 -6.705,2.402 -13.372,4.902 -20,7.5 -1.126,4.303 -1.626,8.636 -1.5,13 6.38,3.923 12.213,8.423 17.5,13.5 -4.167,10.5 -8.333,21 -12.5,31.5 -0.893,0.581 -1.893,0.915 -3,1 -7.088,-2.134 -14.255,-2.801 -21.5,-2 -1.833,2.333 -3.667,4.667 -5.5,7 -0.667,1.333 -0.667,2.667 0,4 3.283,6.214 5.95,12.548 8,19 -9.512,6.757 -18.846,13.757 -28,21 -5.791,-4.122 -11.291,-8.622 -16.5,-13.5 -3.818,0.157 -7.485,1.157 -11,3 -1.467,1.098 -2.301,2.598 -2.5,4.5 -0.607,6.579 -1.44,13.079 -2.5,19.5 -11.228,1.139 -22.395,2.639 -33.5,4.5 -3.538,-6.58 -6.704,-13.413 -9.5,-20.5 -4.342,-1.143 -8.675,-1.81 -13,-2 -3.904,6.316 -8.404,12.149 -13.5,17.5 -10.621,-4.04 -21.1211,-8.374 -31.5,-13 -0.3333,-1 -0.6667,-2 -1,-3 1.6031,-6.609 2.4364,-13.276 2.5,-20 -3.0777,-2.455 -6.2444,-4.789 -9.5,-7 -6.9242,3.355 -13.9242,6.189 -21,8.5 -6.7567,-9.512 -13.7567,-18.846 -21,-28 4.289,-5.958 8.9557,-11.624 14,-17 -1.7956,-3.76 -3.4623,-7.593 -5,-11.5 -7.7227,-1.307 -15.2227,-2.974 -22.5,-5 -1.1736,-10.715 -2.6736,-21.382 -4.5,-32 1.3848,-2.205 3.3848,-3.705 6,-4.5 5.0059,-1.445 9.8393,-3.279 14.5,-5.5 0.2608,-4.206 0.7608,-8.373 1.5,-12.5 -5.1998,-4.522 -10.6998,-8.688 -16.5,-12.5 -0.765,-1.566 -0.5983,-2.899 0.5,-4 z"
       id="path1019" />
  </g>
  <g
     id="g1025"
     transform="matrix(0.39634571,0,0,0.39634571,-2.7932215,-1.8958027)">
    <path
       style="opacity:1"
       fill="#204758"
       d="m 46.5,78.5 c -4.5332,0.489 -9.0332,0.489 -13.5,0 -3.5186,9.7617 -7.6852,19.095 -12.5,28 3.7289,-9.6825 7.5622,-19.3492 11.5,-29 0.7247,-0.5585 1.5581,-0.8918 2.5,-1 3.9729,0.8844 7.9729,1.551 12,2 z"
       id="path1023" />
  </g>
  <g
     id="g1029"
     transform="matrix(0.39634571,0,0,0.39634571,-2.7932215,-1.8958027)">
    <path
       style="opacity:1"
       fill="#010203"
       d="m 81.5,122.5 c 46.001,-0.167 92.001,0 138,0.5 2.5,1.167 4.333,3 5.5,5.5 0.667,12.667 0.667,25.333 0,38 -0.739,3.073 -2.572,5.24 -5.5,6.5 -45.667,0.667 -91.333,0.667 -137,0 -3.5,-0.833 -5.6667,-3 -6.5,-6.5 -0.6667,-12.667 -0.6667,-25.333 0,-38 1.3597,-2.523 3.193,-4.523 5.5,-6 z"
       id="path1027" />
  </g>
  <g
     id="g1033"
     transform="matrix(0.39634571,0,0,0.39634571,-2.7932215,-1.8958027)">
    <path
       style="opacity:1"
       fill="#040404"
       d="m 314.5,123.5 c 3.459,0.936 6.293,2.936 8.5,6 0.499,5.991 0.666,11.991 0.5,18 5.766,0.587 10.266,-1.413 13.5,-6 -0.11,-7.048 2.39,-12.881 7.5,-17.5 1.333,-0.667 2.667,-0.667 4,0 4.756,3.389 6.59,7.889 5.5,13.5 -0.782,8.257 -4.949,13.924 -12.5,17 10.094,7.511 15.427,17.344 16,29.5 -4.667,0.667 -9.333,0.667 -14,0 -2.394,-8.791 -7.061,-16.124 -14,-22 -1.845,-1.128 -3.845,-1.628 -6,-1.5 0.166,7.674 0,15.341 -0.5,23 -4.667,1.333 -9.333,1.333 -14,0 -0.667,-18 -0.667,-36 0,-54 2.04,-1.87 3.873,-3.87 5.5,-6 z"
       id="path1031" />
  </g>
  <g
     id="g1037"
     transform="matrix(0.39634571,0,0,0.39634571,-2.7932215,-1.8958027)">
    <path
       style="opacity:1"
       fill="#050505"
       d="m 426.5,123.5 c 4.412,0.57 7.578,2.903 9.5,7 1.133,11.608 3.466,22.942 7,34 4.123,-11.48 7.789,-23.147 11,-35 0.5,-0.5 1,-1 1.5,-1.5 4,-0.667 8,-0.667 12,0 1.201,0.903 2.035,2.069 2.5,3.5 2.326,11.63 5.659,22.963 10,34 3.471,-11.764 5.805,-23.764 7,-36 7.436,-8.683 12.603,-7.35 15.5,4 -2.234,16.797 -7.067,32.797 -14.5,48 -2.306,2.388 -5.139,3.388 -8.5,3 -2.753,0.147 -5.253,-0.52 -7.5,-2 -4.839,-9.177 -8.505,-18.843 -11,-29 -2.422,9.771 -5.922,19.104 -10.5,28 -4.624,3.097 -9.624,3.764 -15,2 -4.415,-6.729 -7.582,-14.063 -9.5,-22 -2.701,-9.202 -4.867,-18.535 -6.5,-28 0.788,-4.448 3.121,-7.782 7,-10 z"
       id="path1035" />
  </g>
  <g
     id="g1041"
     transform="matrix(0.39634571,0,0,0.39634571,-2.7932215,-1.8958027)">
    <path
       style="opacity:1"
       fill="#060606"
       d="m 642.5,123.5 c 28.903,-0.589 40.736,13.411 35.5,42 -3.619,11.622 -11.452,18.122 -23.5,19.5 -22.211,1.956 -33.544,-8.211 -34,-30.5 -0.323,-15.979 7.011,-26.312 22,-31 z"
       id="path1039" />
  </g>
  <g
     id="g1045"
     transform="matrix(0.39634571,0,0,0.39634571,-2.7932215,-1.8958027)">
    <path
       style="opacity:1"
       fill="#050505"
       d="m 763.5,123.5 c 25.835,-1.666 37.668,10.334 35.5,36 -2.17,17.858 -12.337,26.525 -30.5,26 -19.542,-1.551 -28.875,-12.217 -28,-32 0.239,-15.884 7.905,-25.884 23,-30 z"
       id="path1043" />
  </g>
  <g
     id="g1049"
     transform="matrix(0.39634571,0,0,0.39634571,-2.7932215,-1.8958027)">
    <path
       style="opacity:1"
       fill="#050505"
       d="m 384.5,124.5 c 7.657,-1.809 13.49,0.524 17.5,7 8.876,16.286 13.876,33.619 15,52 -4.748,1.135 -9.581,1.302 -14.5,0.5 -0.949,-4.086 -1.616,-8.253 -2,-12.5 -7.008,-0.166 -14.008,0 -21,0.5 -0.793,3.411 -1.293,6.911 -1.5,10.5 -0.5,0.5 -1,1 -1.5,1.5 -4.587,0.799 -9.087,0.632 -13.5,-0.5 0.989,-17.641 5.655,-34.308 14,-50 1.642,-3.8 4.142,-6.8 7.5,-9 z"
       id="path1047" />
  </g>
  <g
     id="g1053"
     transform="matrix(0.39634571,0,0,0.39634571,-2.7932215,-1.8958027)">
    <path
       style="opacity:1"
       fill="#050505"
       d="m 525.5,124.5 c 4.014,-0.166 8.014,0.001 12,0.5 3.531,2.871 6.364,6.371 8.5,10.5 5.392,11.177 9.392,22.844 12,35 0.667,4.333 0.667,8.667 0,13 -4.413,1.132 -8.913,1.299 -13.5,0.5 -1.454,-4.009 -2.121,-8.175 -2,-12.5 -7.333,0 -14.667,0 -22,0 0.165,3.682 -10e-4,7.348 -0.5,11 -0.5,0.5 -1,1 -1.5,1.5 -4.333,0.667 -8.667,0.667 -13,0 0.154,-21.962 6.821,-41.796 20,-59.5 z"
       id="path1051" />
  </g>
  <g
     id="g1057"
     transform="matrix(0.39634571,0,0,0.39634571,-2.7932215,-1.8958027)">
    <path
       style="opacity:1"
       fill="#050505"
       d="m 584.5,160.5 c -0.06,-0.543 -0.393,-0.876 -1,-1 -0.997,7.638 -1.331,15.304 -1,23 -0.111,0.617 -0.444,1.117 -1,1.5 -4.587,0.799 -9.087,0.632 -13.5,-0.5 -0.667,-17.667 -0.667,-35.333 0,-53 1.167,-2.5 3,-4.333 5.5,-5.5 10.903,-1.256 21.57,-0.256 32,3 7.372,6.656 8.872,14.49 4.5,23.5 -2.205,2.54 -4.705,4.707 -7.5,6.5 6.744,6.409 11.411,14.075 14,23 -0.085,1.107 -0.419,2.107 -1,3 -4.333,0.667 -8.667,0.667 -13,0 -4.362,-9.182 -10.362,-17.015 -18,-23.5 z"
       id="path1055" />
  </g>
  <g
     id="g1061"
     transform="matrix(0.39634571,0,0,0.39634571,-2.7932215,-1.8958027)">
    <path
       style="opacity:1"
       fill="#050505"
       d="m 694.5,124.5 c 7.674,-0.166 15.341,0 23,0.5 12.916,2.349 17.083,9.516 12.5,21.5 -1.5,2.167 -3.333,4 -5.5,5.5 10.223,5.295 12.723,13.128 7.5,23.5 -3.226,4.705 -7.726,7.538 -13.5,8.5 -8.333,0.667 -16.667,0.667 -25,0 -1.079,-0.956 -2.245,-1.789 -3.5,-2.5 -1.624,-17.267 -1.958,-34.6 -1,-52 1.352,-2.249 3.185,-3.916 5.5,-5 z"
       id="path1059" />
  </g>
  <g
     id="g1065"
     transform="matrix(0.39634571,0,0,0.39634571,-2.7932215,-1.8958027)">
    <path
       style="opacity:1"
       fill="#f8f9f9"
       d="m 99.5,134.5 c 11.173,-0.004 15.339,5.329 12.5,16 -3.87,5.063 -8.704,6.23 -14.5,3.5 -7.1284,-7.379 -6.4617,-13.879 2,-19.5 z"
       id="path1063" />
  </g>
  <g
     id="g1069"
     transform="matrix(0.39634571,0,0,0.39634571,-2.7932215,-1.8958027)">
    <path
       style="opacity:1"
       fill="#f9f9fa"
       d="m 142.5,134.5 c 7.525,-0.966 12.192,2.201 14,9.5 -0.863,7.864 -5.196,11.197 -13,10 -5.797,-2.76 -7.963,-7.26 -6.5,-13.5 2.04,-1.87 3.873,-3.87 5.5,-6 z"
       id="path1067" />
  </g>
  <g
     id="g1073"
     transform="matrix(0.39634571,0,0,0.39634571,-2.7932215,-1.8958027)">
    <path
       style="opacity:1"
       fill="#f9f9fa"
       d="m 193.5,134.5 c 7.525,-0.966 12.192,2.201 14,9.5 -0.863,7.864 -5.196,11.197 -13,10 -5.797,-2.76 -7.963,-7.26 -6.5,-13.5 2.04,-1.87 3.873,-3.87 5.5,-6 z"
       id="path1071" />
  </g>
  <g
     id="g1077"
     transform="matrix(0.39634571,0,0,0.39634571,-2.7932215,-1.8958027)">
    <path
       style="opacity:1"
       fill="#f2f2f2"
       d="m 704.5,136.5 c 3.018,-0.165 6.018,0.002 9,0.5 4,3.333 4,6.667 0,10 -3.991,0.412 -7.158,2.246 -9.5,5.5 -0.781,-5.417 -0.615,-10.75 0.5,-16 z"
       id="path1075" />
  </g>
  <g
     id="g1081"
     transform="matrix(0.39634571,0,0,0.39634571,-2.7932215,-1.8958027)">
    <path
       style="opacity:1"
       fill="#f3f3f3"
       d="m 584.5,154.5 c -0.988,-5.14 -1.321,-10.474 -1,-16 3.918,-2.759 7.751,-2.425 11.5,1 2.77,7.29 0.27,11.457 -7.5,12.5 -1.071,0.852 -2.071,1.685 -3,2.5 z"
       id="path1079" />
  </g>
  <g
     id="g1085"
     transform="matrix(0.39634571,0,0,0.39634571,-2.7932215,-1.8958027)">
    <path
       style="opacity:1"
       fill="#fafafa"
       d="m 645.5,136.5 c 8.033,-1.395 13.533,1.605 16.5,9 1.126,7.545 0.46,14.879 -2,22 -5.432,5.642 -11.599,6.476 -18.5,2.5 -1.877,-2.251 -3.377,-4.751 -4.5,-7.5 -0.667,-5.333 -0.667,-10.667 0,-16 1.261,-4.755 4.095,-8.088 8.5,-10 z"
       id="path1083" />
  </g>
  <g
     id="g1089"
     transform="matrix(0.39634571,0,0,0.39634571,-2.7932215,-1.8958027)">
    <path
       style="opacity:1"
       fill="#f9f9f9"
       d="m 766.5,136.5 c 8.844,-1.171 14.344,2.495 16.5,11 1.011,6.524 0.345,12.857 -2,19 -7.38,7.992 -14.713,7.992 -22,0 -2.838,-7.226 -3.171,-14.559 -1,-22 2.098,-3.603 4.932,-6.27 8.5,-8 z"
       id="path1087" />
  </g>
  <g
     id="g1093"
     transform="matrix(0.39634571,0,0,0.39634571,-2.7932215,-1.8958027)">
    <path
       style="opacity:1"
       fill="#6e6e6e"
       d="m 583.5,138.5 c -0.321,5.526 0.012,10.86 1,16 -0.283,0.789 -0.783,1.456 -1.5,2 -0.819,-6.181 -0.653,-12.181 0.5,-18 z"
       id="path1091" />
  </g>
  <g
     id="g1097"
     transform="matrix(0.39634571,0,0,0.39634571,-2.7932215,-1.8958027)">
    <path
       style="opacity:1"
       fill="#f4f4f4"
       d="m 389.5,140.5 c 3.696,5.748 6.03,12.081 7,19 -4.667,0 -9.333,0 -14,0 1.348,-6.711 3.681,-13.045 7,-19 z"
       id="path1095" />
  </g>
  <g
     id="g1101"
     transform="matrix(0.39634571,0,0,0.39634571,-2.7932215,-1.8958027)">
    <path
       style="opacity:1"
       fill="#f6f6f6"
       d="m 530.5,141.5 c 2.186,1.323 3.686,3.323 4.5,6 1.477,3.93 2.644,7.93 3.5,12 -4.667,0 -9.333,0 -14,0 1.002,-6.34 3.002,-12.34 6,-18 z"
       id="path1099" />
  </g>
  <g
     id="g1105"
     transform="matrix(0.39634571,0,0,0.39634571,-2.7932215,-1.8958027)">
    <path
       style="opacity:1"
       fill="#f5f5f5"
       d="m 703.5,155.5 c 4.851,2.608 9.684,5.274 14.5,8 1.171,6.665 -1.663,9.665 -8.5,9 -1.929,-0.04 -3.762,-0.373 -5.5,-1 -0.499,-5.323 -0.666,-10.656 -0.5,-16 z"
       id="path1103" />
  </g>
  <g
     id="g1109"
     transform="matrix(0.39634571,0,0,0.39634571,-2.7932215,-1.8958027)">
    <path
       style="opacity:1"
       fill="#6f6f6f"
       d="m 584.5,160.5 c -0.667,7.333 -1.333,14.667 -2,22 -0.331,-7.696 0.003,-15.362 1,-23 0.607,0.124 0.94,0.457 1,1 z"
       id="path1107" />
  </g>
</svg>
